<svg viewBox="0 0 24 24" fill="none" xmlns="http://www.w3.org/2000/svg"><path d="M11.738 8.306l-6.321 5.206v5.619a.549.549 0 00.549.549l3.842-.01a.548.548 0 00.545-.549V15.84a.549.549 0 01.549-.549h2.194a.549.549 0 01.549.549v3.279a.548.548 0 00.548.55l3.841.01a.549.549 0 00.549-.548v-5.623l-6.32-5.202a.418.418 0 00-.525 0zm9.985 3.538l-2.866-2.362v-4.75a.412.412 0 00-.412-.41h-1.92a.412.412 0 00-.41.41v2.49l-3.07-2.525a1.646 1.646 0 00-2.092 0l-8.679 7.147a.41.41 0 00-.055.58l.875 1.063a.412.412 0 00.58.055L11.738 6.9a.418.418 0 01.525 0l8.065 6.642a.412.412 0 00.58-.054l.873-1.063a.41.41 0 00-.058-.58z" fill="#fff"></path></svg>